<svg version="1.2" baseProfile="tiny-ps" xmlns="http://www.w3.org/2000/svg" viewBox="0 0 1280 859" width="149" height="100">
	<title>boi-svg</title>
	<style>
		tspan { white-space:pre }
		.shp0 { fill: #313232 } 
	</style>
	<g id="Layer">
		<path id="Layer" class="shp0" d="M284 1C284 1.6 287.1 2 291.3 2C299.1 2 306.4 3.6 305.5 5C305.2 5.5 306.6 6.4 308.7 6.9C314.4 8.5 317 10.7 317 14C317 16.1 316.2 17.4 314.3 18.7C312.7 19.6 310.9 21 310.3 21.9C308.5 24 308.7 32.7 310.6 36C313.1 40.2 311.5 48 307.7 49.8C305.4 50.9 305 51.7 305 55C305 57.1 304.6 59.2 304 59.5C301.7 60.9 303.7 61.9 317.3 66.3C335.6 72.2 350.8 76.2 369.5 79.9C393.6 84.7 408.1 85.9 446.5 86.4C466.3 86.7 489.6 87.6 500 88.5C540.3 92 584.3 98.6 616.3 106C650.5 113.8 681.6 119 694.7 119C698.1 119 718.7 120.1 740.3 121.5C812.6 126.1 829.3 127 856 127.6C872.8 128 885.1 127.9 889.5 127.2C893.4 126.6 908.4 124.3 923 122.1C1003 110 1087.4 104.3 1125 108.5C1132.4 109.4 1145.2 110.5 1153.4 111C1199.6 113.9 1217.1 120.8 1225.7 139.6C1228.5 145.7 1235 170.6 1235 175.1C1235 176.7 1236.3 180.4 1237.9 183.3C1239.5 186.1 1241.4 190.5 1242 192.9C1243.5 198.7 1243.7 332.8 1242.1 341.5C1241.6 344.8 1240.1 359.9 1239 375C1237.8 390.1 1236.2 407.2 1235.5 413C1231.7 441 1231.7 441.5 1233.4 456.4C1234.3 464.1 1235.4 477.6 1235.9 486.2C1237 507.7 1237.7 509.1 1256.5 527.5C1270.3 540.9 1271.9 543 1273.4 549.3L1274.1 552.1L1270.7 548.8C1268.9 547 1265 543.5 1262 541C1258 537.7 1256.9 537.2 1258.1 539C1264.9 549.6 1272.5 564 1275 570.8C1278.6 580.8 1280.3 593.9 1279.8 608.7C1279.5 619.3 1279.4 620 1276.4 624.1C1274.7 626.5 1272.8 628.6 1272.3 628.7C1271.8 628.9 1270.9 627.3 1270.4 625.3L1269.5 621.5L1266.7 628.9C1265.2 632.9 1263.5 638.3 1262.9 640.9C1261.7 646.4 1259.5 650 1257.5 650C1255.6 650 1255.6 647.9 1257.4 637C1258.2 631.9 1258.5 626.1 1258.2 622.6L1257.5 616.7L1254.2 628.6C1252.4 635.1 1251 642.2 1251 644.2C1251 648 1253.3 659 1255 663.5C1255.5 664.9 1255.8 666 1255.6 666C1254.8 666 1245.7 649.7 1244.5 646.2C1242.7 641 1242.4 631.1 1243.3 611C1244.1 594.5 1244 593.1 1242 586.5C1240 580.1 1236.4 572 1235.6 572C1235.4 572 1235.5 575.3 1235.8 579.3C1236.6 592.2 1232.3 608.9 1223.1 628C1219.7 635.1 1219.7 634.9 1224.1 618.1C1228.8 600 1228.1 591.3 1220 563.5C1217.8 556.1 1216 549.1 1216 548.1C1216 547.1 1216.9 544.2 1218 541.7C1219.9 537.4 1222.2 527.1 1223.5 516.4C1223.9 513.5 1223.2 501.7 1222.1 489.4C1218.7 453.1 1216.7 421 1217.5 413.1C1217.8 409 1219.4 400.2 1221.1 393.6C1225.1 376.9 1226 368.4 1225.9 346.5L1225.8 327.5L1222.5 340.5C1211.4 384.4 1198.4 416.7 1181.2 442.5C1169.1 460.7 1164.4 465.4 1153.6 470.5C1135.6 478.8 1128.7 491.9 1126 522.8C1125.4 529.9 1123.7 540.4 1121.9 547.3C1118.1 562.5 1117.4 570.7 1119 580.7C1120.6 590.9 1123.7 599.2 1128.9 607.5C1134.6 616.5 1134.9 619.5 1131.2 630.2C1125.2 647 1121.3 671.7 1119 706C1118.4 715.1 1117 730.6 1115.9 740.5C1113.5 761 1113.7 770.6 1117 785C1119.3 795.3 1119.2 802.2 1116.6 804.8C1115.2 806.3 1114.6 806.2 1110.5 804.2C1107 802.5 1105.8 802.3 1105.4 803.3C1105.2 804 1105.9 812 1107 821C1108.1 830 1109 837.5 1109 837.6C1109 837.6 1108 837.5 1106.8 837.3C1104.8 836.9 1104.5 837.3 1104.4 840.7C1104.2 845.9 1101.7 851.5 1098.7 853.4C1097.4 854.3 1093.2 855.7 1089.4 856.5C1083.1 857.9 1081 857.8 1064 855.9C1053.8 854.7 1045.4 853.7 1045.2 853.5C1045 853.3 1046 850.9 1047.4 848.1C1048.8 845.3 1050 842.8 1050 842.4C1050 842 1047.8 843.8 1045 846.4C1039.2 851.8 1035.4 852.5 1034.4 848.4C1032.7 841.7 1037.4 832.2 1050.5 816C1060.1 804.2 1069.5 790.3 1072.5 783.6C1076.1 775.8 1078.1 760 1078.8 735C1079.6 708.2 1078.7 679.6 1076.5 661.1C1074.8 647.5 1071.7 635 1070 635C1069.4 635 1069 635.5 1069 636.1C1069 639.3 1045.7 694.1 1030.6 726.3C1028.1 731.7 1026 737.5 1026 739.2C1026 740.9 1027 745.8 1028.1 750C1029.4 754.5 1030 758.9 1029.6 760.4C1029.1 762.6 1020.8 770.5 1012.8 776.5C1010.4 778.3 1010 779.5 1009 787.9C1008.4 793.1 1007.2 800.5 1006.3 804.5L1004.7 811.8L992.1 816.9C977.3 822.9 971.4 824.3 965.1 823.5C953.8 822 943.3 819.8 941.3 818.4C936.9 815.6 938.9 810.7 949.5 798.5C952.4 795.2 956.4 789.8 958.5 786.5C960.6 783.2 964.1 778.5 966.3 776.2C970.6 771.4 975.2 762.2 979.9 748.5C981.7 743.5 984.6 736.5 986.6 732.8C993.7 719 1001.5 693.5 1004.4 673.7C1008.9 644.3 1006.9 610.2 998.9 580.3C994.6 563.8 986.9 545 984.4 545C982.5 545 977.4 549.6 974.9 553.7C973.2 556.4 972.5 559.6 971.9 567.3C971.1 578 969.6 581 965.5 581C961.5 581 958.2 577.3 956 570.3C954.9 566.7 954 562.1 954 560C954 555.1 952.3 553.8 947.2 554.6C943.4 555.2 943.1 555.5 941.2 560.9C940.1 564 938.9 569.4 938.5 573C937.8 580 933.7 589.5 930.7 591.2C928 592.6 925.2 591.2 923.4 587.7C921.6 584.3 921.9 574.8 924.2 562.2C925.2 556.8 925.1 555.7 923.8 554.3C920.6 551.2 912.6 555.6 911.5 561.3C911.1 563 909.5 568.7 907.9 573.8C906.3 578.9 905 584.1 905 585.4C905 592 901.9 592.7 896.7 587.4C891.3 581.8 889.5 571.6 892.2 561.6C893.6 556.5 892.4 554 888.5 554C884.2 554 882.8 557.1 882 568.7C881 581.1 880.1 584.2 876.6 586.5C873.4 588.6 869.5 587.5 866.7 583.8C864.8 581.3 864.8 580.8 866.2 571.5C867.8 561.4 867.3 555.4 864.4 548.5C863.2 545.5 861.7 544.4 854.2 540.9C845.5 536.8 845.5 536.8 836.5 537.4C826.4 538 815.6 540.4 799.5 545.6C784.9 550.3 774.9 550.9 759 548.1C718.9 540.8 662.9 535.6 624.5 535.6C601.1 535.5 600.2 535.6 586 538.8C571.1 542.1 546.1 548.5 545.6 549.1C545.4 549.3 546.7 567.5 548.5 589.5L551.7 629.6L555.7 636.5C561.7 646.8 566.2 656 567.2 660C567.6 661.9 568.5 678.3 569 696.5C570.2 741.6 571 745.7 580.2 755.8C587 763.3 589 767.1 589 772.9C589 778.7 588.2 780 583.4 782.1C579.9 783.5 579 784.4 579 786.3C579 787.7 579.8 789.4 580.7 790.1C581.6 790.9 583.6 793.5 585.2 795.9C588.4 801 589 807.7 586.6 813.2C585.8 815 584.6 818 583.9 819.9C581.4 826.6 564.2 835 552.6 835C549.8 835 543.9 835.7 539.5 836.5C530 838.2 516 838.4 510.7 836.9C505.6 835.5 502.7 832.6 503.5 829.7C505.2 823.8 511.5 812.3 519.3 800.7C524 793.7 528.5 787.3 529.3 786.5C532.2 783.6 537.2 765.9 537.7 756.4C538.2 748.5 537.9 746 535.6 737.9C531.1 722.1 520.9 702.8 513.5 696C508.8 691.7 502 682.3 499.3 676.3C497 671.4 496.8 670.1 497.7 666.8C498.6 663.5 497.7 658.2 491.6 629C487.7 610.3 484.2 595 483.9 595C482.7 595 473.1 616.6 471.5 623C469.7 629.6 469.8 631.5 471.9 655C473.3 671.3 469.5 703.2 464.9 714.1C463.6 717.1 461 722.2 459.2 725.5C453.9 734.9 452 740.5 451 750.3C450.5 755.4 448.7 766.2 447 774.4C445.4 782.6 444 790.2 444 791.4C444 792.6 445.8 795.3 448 797.5C455.8 805.1 455.5 811.2 447 815.5C441.8 818.2 441.1 819.4 443.4 822.5C444.2 823.7 444.6 825.8 444.3 828.1C443.9 830.8 444.5 833.4 446.4 837.5C447.8 840.7 449 843.4 449 843.6C449 843.8 448.1 844 446.9 844C445.7 844 443.1 845.4 440.9 847.1C436.3 850.7 427.5 854.4 420 855.8C411.9 857.3 372.3 859.4 366.9 858.6C364.3 858.2 361.5 857.1 360.5 856C358.9 854.2 358.9 853.9 360.4 851.6C361.2 850.2 365.1 846.6 369 843.5C376.8 837.3 379.4 834.1 378.4 831.6C377.3 828.6 375.1 829.9 370.5 836.5C363.1 846.8 357.3 850.5 354.1 846.6C353.2 845.6 353.7 844.4 356.1 841.4C357.8 839.3 361 834.8 363.3 831.5C365.5 828.2 370.1 822.1 373.5 818C376.9 813.9 381.3 807.3 383.3 803.5C385.3 799.6 389.6 793.6 392.9 790L398.7 783.5L402.9 763C405.3 751.7 408 739.1 409.1 734.8C411.6 724.9 411.5 722.4 408.5 709.4C406.3 700.1 405.8 694.3 404.8 670.6C403.8 643.8 403.8 642.2 406 626.8C409.5 601.9 408.1 585.3 400.5 562.5C399.5 559.7 398 556.1 397 554.5C394.1 549.8 380.8 537.3 366.5 526.1C359.4 520.4 351.3 513.3 348.6 510.1C333.1 492.3 316.4 458.2 311.1 433.5C309.9 428 308.5 421.5 307.9 419C306.7 413.7 296.5 393.3 281.3 365.5C267.1 339.8 262.6 330.7 255.5 313.5C252.3 305.8 248.9 298.4 248 297C245.8 293.9 228.3 282.9 217.5 277.9C208.2 273.5 189.5 267 186.3 267C185.1 267 181.5 268.6 178.3 270.5C169.9 275.5 167.2 275.3 158.1 268.3C152.6 264.2 148 263.9 142.7 267.6C139 270.1 138.7 270.1 130.2 269.1C123.1 268.2 120.5 267.4 115.7 264.4C109.7 260.7 108.3 260.6 101.8 263.1C100.3 263.7 96.6 267.3 93.6 271C87.3 278.8 83.9 280.6 72.6 282.7C63.7 284.3 57.7 283.9 55.2 281.7C54.3 280.9 51.3 280 48.5 279.7C33.4 278 26.5 274.1 23.7 265.7C22.5 262 21.6 261.1 16.1 258.3C8.5 254.5 2.4 248.9 0.9 244.2C-0.9 238.7 0.6 230.5 5.2 221C8.9 213.4 10.9 210.9 25.5 196C34.5 186.9 44.2 176.1 47.1 171.9C50.1 167.7 55.7 160.6 59.5 156C74.7 138.2 74.7 138.1 75.4 133.4C75.7 131 77.8 125.5 79.9 121.2C82.5 116.3 84.3 111 85 106.6C85.6 102.8 86.7 98.3 87.4 96.6C88.9 93.1 100.6 79.4 110.9 69.2C119.1 61.1 120.1 59.4 118.9 56.2C118.1 54.2 118.5 53.3 121.2 50.6C123 48.9 125.5 46.8 126.7 46C128.6 44.8 129.1 43.2 129.6 37.2L130.3 29.9L136.1 27C140.9 24.5 142.7 24.1 146.3 24.6C148.8 25 153.9 24.6 158.4 23.6C168.7 21.5 169.3 21.5 168 23.9C167.5 25 167 26.2 167 26.6C167 27.4 180.8 26.4 183.4 25.4C184.7 24.9 185 25.5 185 28.4L185 32L191.4 32C197.7 32 197.8 32 200.3 28.1C202 25.6 205 23 208.8 21C212 19.3 216.9 15.9 219.7 13.5C225.9 8.1 227.3 7.5 242.2 4.4C254.7 1.8 260.1 1.4 262.9 2.9C264.1 3.6 266.5 3.3 270.6 2C277 -0.1 284 -0.6 284 1Z" />
	</g>
</svg>