<svg version="1.2" baseProfile="tiny-ps" xmlns="http://www.w3.org/2000/svg" viewBox="0 0 207 442" width="207" height="442">
	<title>crianca-svg</title>
	<style>
		tspan { white-space:pre }
		.shp0 { fill: #000000 } 
		.shp1 { fill: #313232 } 
	</style>
	<g id="Layer">
		<path id="Layer" class="shp0" d="M-266.5 -145.5C-237.8 -144.4 -216.1 -121.6 -216 -92.4C-216 -73.7 -226.1 -56 -242.2 -46.6L-247 -43.8L-247 -33.9L-247 -24L-228.6 -24C-218.5 -24 -207.8 -23.5 -204.9 -23C-193.2 -20.8 -183 -13.1 -177.2 -2.2C-173.6 4.6 -131 140.7 -131 145.3C-131 156.7 -139.9 166.7 -151.7 168.6C-160.2 169.9 -171.8 164.2 -175.7 156.7C-176.8 154.5 -205 66 -205 64.6C-205 64.5 -206.8 64.6 -209 64.8C-211.2 65 -213 65.5 -213 65.8C-213 66.3 -194.2 130.5 -162.6 238L-155.4 262.5L-183.7 262.8L-212 263L-212 344.8C-212 421.9 -212.1 426.7 -213.9 430.5C-216.1 435.5 -220.8 439.6 -225.9 441.1C-228.2 441.8 -234 442.1 -240.1 441.9C-252 441.4 -256.2 439.6 -260.2 433.2L-262.5 429.5L-263 346.5L-263.5 263.5L-268.7 263.5L-274 263.5L-274.2 345.6L-274.5 427.7L-277.5 432.5C-282.1 440 -286.8 442 -299.7 442C-314.2 442 -320.1 439.3 -324.1 430.5C-325.9 426.7 -326 422.1 -326 344.8L-326 263L-354.3 262.8L-382.6 262.5L-353.7 164.2C-337.8 110.1 -324.9 65.7 -325.1 65.5C-325.3 65.4 -327.5 65 -330 64.9L-334.4 64.5L-348.7 110C-358.7 141.9 -363.8 156.6 -365.7 159.4C-367.3 161.7 -370.6 164.5 -373.3 165.9C-388.5 173.7 -407 162.4 -407 145.3C-407 143.5 -398.9 116 -388.9 84.3C-378.9 52.5 -369.2 21.3 -367.3 15C-365.3 8.7 -362.6 1.3 -361.3 -1.4C-357.9 -8.2 -350.1 -16.1 -343.7 -19.3C-336.4 -23.1 -329.4 -24 -308.7 -24L-291 -24L-291 -33.9L-291 -43.8L-295.7 -46.6C-311.9 -56 -322 -73.7 -322 -92.4C-322 -110.2 -314.6 -124.9 -300.4 -135.6C-295.1 -139.5 -284.5 -144.2 -278 -145.4C-276.6 -145.7 -271.4 -145.7 -266.5 -145.5Z" />
		<path id="Layer" class="shp0" d="M-655.7 -143.5C-636.3 -139.4 -619.6 -123.2 -614.9 -104C-613.2 -96.7 -613.4 -83.8 -615.3 -77.2C-619.2 -64.3 -628.7 -51.9 -639.8 -45.5L-645 -42.5L-645 -33.8L-645 -25.2L-612.2 -24.8C-583.6 -24.4 -578.9 -24.1 -574.5 -22.5C-558 -16.5 -547.3 -3.1 -545 14.1C-543.7 24.6 -543.7 165.5 -545.1 171.9C-549.5 192.6 -577.5 196.5 -587.7 177.9C-589.4 174.7 -589.5 170.6 -590 120.5L-590.5 66.5L-596.2 66.2L-602 65.9L-602.2 246.7L-602.5 427.5L-604.8 431.7C-606 434.1 -608.9 437.2 -611.2 438.7C-615.1 441.4 -616.1 441.5 -628.9 441.8C-637 442 -644 441.7 -646.2 441.1C-651.2 439.6 -655.9 435.4 -658.1 430.5C-659.9 426.7 -660 421 -660 314.2L-660 202L-666.5 202L-673 202L-673.2 314.7L-673.5 427.5L-675.8 431.7C-677 434.1 -679.9 437.2 -682.2 438.7C-686.1 441.4 -687.1 441.5 -699.9 441.8C-708 442 -715 441.7 -717.2 441.1C-722.2 439.6 -726.9 435.4 -729.1 430.5C-730.9 426.7 -731 419 -731 246.2L-731 65.9L-736.7 66.2L-742.5 66.5L-743 120C-743.6 180.2 -743.2 177.6 -751.3 184.5C-763 194.6 -780.7 190.3 -786.9 176L-789.1 171L-788.8 89.7L-788.5 8.5L-784.8 0.7C-780.6 -8.1 -774.2 -14.9 -766.2 -19.3C-757.2 -24.2 -750.5 -25 -717.7 -25L-688 -25L-688 -33.5L-688 -42L-694.5 -46C-710.1 -55.9 -719.9 -73.3 -720 -91.2C-720 -116 -702.2 -138.2 -678 -143.4C-669.5 -145.3 -664 -145.3 -655.7 -143.5Z" />
		<path id="Layer" class="shp0" d="M396 0.3C405.3 0.6 413.2 3.5 420 8.9C422.7 11.1 424.3 11.6 426.8 11.2C431.9 10.5 434.5 11.7 440.9 17.6C446.6 22.8 454.2 33.4 458.9 42.7L461 47L456.2 47C453.5 47 450.5 47.7 449.2 48.6C447.9 49.5 446.7 50 446.4 49.7C446.2 49.5 445 46 443.9 42.1C441.5 33 437.7 25.5 433.7 21.2C429.2 16.5 427.9 17.2 430.6 22.7C439.3 40.3 433.1 62.8 416.7 73L411.1 76.5L411 84.2L411 92L425.8 92C441.8 92 445.2 92.9 451.8 98.5C458.6 104.2 457.6 101.2 481.4 183.4C486.7 201.4 491 217.6 491 219.4C491 224 487.1 231.1 483.1 233.7C479.2 236.4 472.4 236.8 468.2 234.6C461.9 231.3 461.1 229.5 450.6 193.3L440.5 158.5L437.3 158.2C435.1 158 434 158.3 434 159.2C434 159.9 443 193.3 453.9 233.5C464.9 273.6 473.8 306.6 473.7 306.7C473.5 306.8 464.7 307 454 307.2L434.5 307.5L434 370.5C433.5 429.1 433.4 433.7 431.7 436.2C429 440.2 424.2 442 416.3 442C408.1 442 403.4 439.9 400.5 435C398.6 431.6 398.5 429.8 398.2 369.5L398 307.5L394.5 307.2L391.1 306.9L390.8 369.7C390.5 439.6 390.9 435.6 383.7 440.1C381 441.8 379.1 442 371.8 441.8C364.2 441.5 362.8 441.2 360.5 439C359 437.6 357.3 435.6 356.7 434.5C355.8 433.1 355.4 414.7 355 370L354.5 307.5L334.9 307L315.4 306.5L335.5 232.8C346.6 192.2 355.5 158.8 355.2 158.5C354.1 157.5 348.9 158 348.5 159.2C348.3 159.9 344 174.7 339.1 192C334.1 209.3 329.1 225.3 328 227.5C325.2 233 321.7 235.3 315.4 235.8C309.2 236.3 304.3 233.9 301.1 228.7C296.7 221.6 296.7 221.5 313.4 164.2C322.5 133 330 108.9 331.6 105.9C334.7 100.3 340.3 95.4 345.8 93.4C348.2 92.6 354.6 92.1 363.8 92L378 92L378 84.2L378 76.5L374.5 74.6C369.2 71.7 361.2 62.7 358.2 56.3C355.8 51.1 355.5 49.4 355.5 39.5C355.5 29.4 355.7 28.1 358.3 23.2C361.6 16.9 359.9 16.1 355 21.7C351.3 25.9 347.9 33.1 345.5 41.6C342.9 51 343.3 50.4 340.5 48.6C339.2 47.7 336 47 333.5 47C331 47 329 46.8 329 46.5C329 45.1 334.7 34.8 339.1 28.4C347.6 15.8 356.4 9.6 363.3 11.4C364.8 11.8 366.6 11.1 369 9.1C373.2 5.8 378.1 3.1 383.5 1.3C385.9 0.5 390.8 0.1 396 0.3Z" />
		<path id="Layer" class="shp1" d="M103.1 1.1C123 0.9 139 14 143.1 33.8C144.7 41.4 143.5 50.1 139.6 58.5C136.8 64.7 128.1 73.9 123.1 75.9C120 77.2 120 77.3 120 84.5L120 91.8L137.8 92.2C153.9 92.5 155.9 92.7 159.7 94.8C165.1 97.6 170.4 102.9 173 107.9C174.1 110.1 182.2 134.9 191.1 163.2C202.4 199.1 207.2 215.9 207.2 219.2C207.2 233.9 189.7 241.3 178.8 231.2C175 227.6 174.5 226.4 164.1 193.3C158.2 174.5 153.1 158.7 152.7 158.4C152.3 158 152 219.3 152 294.7L152 431.7L149.7 435.1C146.1 440.5 142 442 130.5 442C119 442 114.9 440.5 111.3 435.1L109 431.7L109 346.9L109 262L104 262L99 262L99 345.8L99 429.6L96.8 434C93.4 440.5 89.8 442 77.2 442C68.5 442 66.2 441.7 63 439.9C55.4 435.6 56 448.1 56 295.1C56 219.7 55.6 158 55.2 158C54.8 158 50 172.3 44.6 189.7C39.2 207.2 34 223.3 33 225.6C28.4 236.2 15 239.3 6.3 231.7C2.3 228.2 0 223.6 0 219.2C0 216 32 112.9 34.4 108.1C37.1 102.9 42.1 98 47.4 95.2C52.3 92.6 53.3 92.5 69.7 92.2L86.8 91.8L87.2 84.9L87.5 77.9L82.8 74.9C76.4 70.7 70.3 63.9 67.2 57.2C64.8 52.2 64.5 50.3 64.5 41C64.5 31.2 64.7 30 67.7 24C72.8 13.7 81.9 5.7 92.3 2.5C94.6 1.7 99.5 1.1 103.1 1.1Z" />
	</g>
</svg>