<svg version="1.2" baseProfile="tiny-ps" xmlns="http://www.w3.org/2000/svg" viewBox="0 0 1119 1280" width="87" height="100">
	<title>galinha-svg</title>
	<style>
		tspan { white-space:pre }
		.shp0 { fill: #313232 } 
	</style>
	<g id="Layer">
		<path id="Layer" class="shp0" d="M178.6 4.8C187 9.1 193.7 19.3 194.7 29.3C195.4 36.3 192.3 44.4 186.4 50.8C184 53.6 182 56.1 182 56.4C182 57.3 196.1 67 201.4 69.7C204.2 71.1 210.2 72.8 215.9 73.7C226.3 75.3 236.1 79.3 244.1 85.1C246.7 87 257 96.1 267 105.5C305.2 141.2 312 152.9 324.5 204.2C327.4 216.5 332.2 236.8 335 249.5C346.3 300.1 352.9 324.2 358.8 335.4C367.3 351.7 395.8 375.5 426.1 391.5C442 399.8 451.5 403 460.5 403C500.5 403 681.4 378.4 732.9 366C745.6 362.9 751.8 360.1 770.7 348.8C783.9 340.9 788.1 337 800.1 321.3C810.2 308 812.7 303.8 824.5 280.5C847.9 234.2 873.3 189.9 880.8 182.4C886.1 177.1 897 170.5 917 160.5C931.6 153.2 932.7 152.8 937.6 153.3C945.3 154.1 948.5 156.2 952.2 162.9L955.4 168.7L960.8 168.6L966.3 168.5L969.9 174.4L973.6 180.4L985.1 182C1002.7 184.5 1007.9 187.8 1004.7 194.5C1002.5 199.1 1003 200.1 1012.6 210.2C1016.7 214.5 1020 218.8 1020.1 219.7C1020.1 220.7 1020.1 224.3 1020 227.7C1019.9 231.2 1020 234 1020.2 234C1020.4 234 1023.7 232.9 1027.5 231.5C1032.4 229.8 1036.6 229 1041.6 229C1047.8 229 1049.2 229.4 1053.2 232C1055.7 233.6 1060 237.4 1062.9 240.4C1067.9 245.8 1068 246 1068 252.2C1068 255.7 1068.7 261.4 1069.5 265L1071.1 271.5L1092.5 293C1106.3 306.9 1114.5 315.8 1115.5 318.2C1118.3 325 1116.9 337.9 1113.1 339.9C1111.7 340.7 1110.5 340.1 1107.4 336.9C1099.7 329 1095.8 327.3 1083.6 326.5C1073.2 325.8 1072.7 325.8 1073.4 327.6C1075.1 331.9 1076.2 338.9 1075.7 341.1C1075.3 342.4 1072.8 346.1 1070 349.3C1064.4 355.8 1064.5 355.1 1067.6 372.9C1069.3 382.1 1070.6 385.6 1074.6 391C1076.9 394.1 1077.1 395.3 1076.8 400.7C1076.5 406.1 1076 407.5 1073.3 410.2C1071.6 412 1069.1 415.4 1067.7 417.6C1065.2 421.6 1064.8 421.8 1059 422.5C1052 423.3 1052.2 422.6 1056.6 433C1058.1 436.6 1059.5 441.7 1059.7 444.5C1060.1 448.8 1059.7 450.3 1056.8 454.9C1054.3 459.1 1052.2 461.1 1047.6 463.6C1040.3 467.6 1031.8 474.7 1027.3 480.4C1024.5 484.1 1023.7 486.2 1022.5 494.1C1020.8 505.6 1018.5 512.3 1015.7 514.9C996.6 531.6 994 537.2 992 566.1C990.3 590.4 986.5 603.2 976.1 619C974.2 622 959.7 637.5 944 653.5C916.1 681.8 907.3 691.9 904.2 699C903 701.7 902.5 708.6 901.9 730C901.2 756.5 900.3 764.6 897.9 769.1C897.3 770.3 892.2 775.8 886.6 781.4C875.5 792.4 872 797.9 868.9 809.3C865 823.1 856 839.7 846.6 849.9C844.3 852.3 836.9 858 830 862.5C816.5 871.3 805.1 880.4 778.5 903.4C760.9 918.6 742.5 931.6 711.5 950.5C702.7 955.9 695.4 960.3 695.3 960.4C695 960.6 702.1 1001.9 706.1 1023C711.5 1052.2 716.7 1073.2 719.3 1077.2C721.9 1081 729.6 1086.3 744 1094C761.5 1103.3 761.5 1103.3 772.4 1133.2C783 1162.5 783.6 1161.1 766.5 1146.6C758 1139.4 755.6 1137.9 749.5 1136.1C740.2 1133.3 737.4 1133.4 729.3 1137.1C710.9 1145.4 694.9 1151.1 686.8 1152.1C675.1 1153.5 648.3 1158.5 630 1162.6C621.5 1164.5 613.1 1166.4 611.3 1166.7L608.1 1167.2L609.2 1163.4C613.1 1149.1 624.4 1139.3 645.9 1131.4L656.3 1127.6L665 1117.7C669.9 1112.3 675.3 1105.1 677 1101.8C680.1 1096.1 680.2 1095.3 679.7 1088.1C679.3 1083.1 676.8 1072.6 672.6 1057.6C669 1045.1 665.6 1032 665.1 1028.6C664.2 1023 663 1006.8 661.4 979.8C661 972.4 660.5 969.3 659.7 969.5C657.4 970.3 612.4 977 603.3 977.8C591.4 979 589.9 980.1 578.4 996.7C567.3 1012.7 564.5 1015.4 548.6 1026.2L535.7 1034.9L523.5 1071.2C496.7 1150.9 481.8 1187.5 469.5 1204.3C460.2 1217 458 1225.9 461.7 1236.2C463 1240 463.1 1241.4 462.2 1243.4C460.5 1247.2 457.2 1247.5 449.9 1244.4C445 1242.4 441.3 1241.6 434.3 1241.3C425.8 1240.8 424.6 1241 419.7 1243.4C416.8 1244.8 409.2 1250.3 402.9 1255.5C396.6 1260.8 389.3 1266.2 386.7 1267.5C384.1 1268.9 379.9 1271.3 377.5 1273L373 1276.1L373 1270.1C373 1266.8 372.3 1261.1 371.4 1257.3C369.6 1249.4 370 1242.8 372.6 1239.9C373.6 1238.8 381.4 1233.3 389.9 1227.7L405.3 1217.5L389.9 1216.8C381.4 1216.5 370.6 1215.6 365.8 1214.9C361 1214.3 355.3 1214 353 1214.4C349 1215 348.9 1214.9 349.6 1212.8C351.6 1206.2 358.4 1197 361.2 1197C361.8 1197 365.8 1195 369.9 1192.5C381.3 1185.9 384.7 1184.9 401.5 1183.9C417.2 1183 426.3 1181.6 431.7 1179.3C434.2 1178.3 435.8 1176.4 438.5 1171C447.9 1152.3 465.6 1107.6 474.3 1080.5C478.8 1066.4 484.5 1045.1 483.8 1044.6C483.7 1044.5 480.6 1041.9 477 1038.9C473.4 1035.9 463.2 1028.5 454.5 1022.5C416.9 997 409.5 988.9 399.1 962.7C390.5 941.1 387.6 938.2 351.5 914C297.3 877.8 280.1 868.7 257.4 864C237.3 859.8 214.8 848.3 189.9 829.5C167.5 812.7 155 800.3 116.2 756.3C91 727.7 81 706.8 78 676.4C77.1 667 77.2 660.7 79.1 635.4C81.4 604.9 81.9 574.1 81.1 517.5C80.8 490.9 81.5 477.2 85.1 446C91.2 392.7 100.2 351.4 131.9 230.5C134.1 222.3 135.7 215.4 135.6 215.3C135.5 215.2 133.6 215.7 131.5 216.5C126 218.4 120.7 218.3 112.6 216.1C107.5 214.7 103.8 214.3 98.1 214.7C80 216 71 209.9 71 196.2C71 191.9 70.7 191.3 67.4 189.2C61.9 185.6 58.8 177.9 58.2 166.3L57.7 157L49.1 157C39.7 157 27.8 158.7 13 161.9C7.8 163.1 3.2 164 2.7 164C2.1 164 1.9 161.1 2.2 157.2C3.2 143.7 10.4 135 30.3 123.5L37.3 119.5L37.1 107.7C37 100.9 37.4 94.3 38.1 92.2C39.7 87.1 44.4 82.4 50.5 79.9C55.5 77.8 55.8 77.5 58.8 70.1C62.8 60.4 69.6 50.1 73.8 47.5C75.6 46.4 78.5 44.6 80.3 43.5C82.1 42.4 84.4 39.5 85.6 37.1C87.1 34 88.9 32.2 92.1 30.5C94.5 29.3 100.8 25.5 106 22.1C111.2 18.8 117 15.7 119 15.4C120.9 15.1 126.4 13.5 131.3 11.9C136.1 10.3 140.7 9 141.6 9C142.4 9 145.8 7.9 149 6.5C152.3 5.1 156.7 3.5 158.8 3C164.4 1.6 174 2.5 178.6 4.8Z" />
	</g>
</svg>