<svg version="1.2" baseProfile="tiny-ps" xmlns="http://www.w3.org/2000/svg" viewBox="0 0 153 240" width="153" height="240">
	<title>grelha-logo-svg</title>
	<style>
		tspan { white-space:pre }
		.shp0 { fill: #e1e1e6 } 
	</style>
	<path id="Path 0" fill-rule="evenodd" class="shp0" d="M55.73 -0.02C56.7 -0.03 58.07 0.54 58.77 1.23C59.46 1.93 60.04 3.85 60.05 5.5C60.07 7.31 58.67 10.59 56.54 13.75C54.59 16.64 53 20.13 53 21.5C53 22.88 54.57 26.25 56.5 29C59.08 32.69 60 35.05 60 38C60 40.2 59.39 43.46 58.65 45.25C57.92 47.04 56.54 49.17 55.59 50C54.64 50.82 53.45 53.19 52.93 55.25C52.32 57.7 51.3 59.17 50 59.5C48.9 59.77 47.3 59.44 46.46 58.75C45.61 58.06 44.91 56.15 44.92 54.5C44.92 52.73 46.37 49.35 48.46 46.25C50.41 43.36 52 39.88 52 38.5C52 37.13 50.54 34.15 48.75 31.89C46.12 28.56 45.44 26.69 45.16 22.14C44.87 17.35 45.21 15.97 47.39 13C48.8 11.07 50.42 8.49 50.98 7.25C51.54 6.01 52.44 3.88 52.98 2.5C53.52 1.13 54.76 -0.01 55.73 -0.02ZM79.73 -0.02C80.7 -0.03 82.07 0.54 82.77 1.23C83.46 1.93 84.04 3.85 84.05 5.5C84.07 7.31 82.67 10.59 80.54 13.75C78.59 16.64 77 20.13 77 21.5C77 22.88 78.57 26.25 80.5 29C83.08 32.69 84 35.05 84 38C84 40.2 83.39 43.46 82.65 45.25C81.92 47.04 80.54 49.17 79.59 50C78.64 50.82 77.45 53.19 76.93 55.25C76.32 57.7 75.3 59.17 74 59.5C72.9 59.77 71.3 59.44 70.46 58.75C69.61 58.06 68.91 56.15 68.92 54.5C68.92 52.73 70.37 49.35 72.46 46.25C74.41 43.36 76 39.88 76 38.5C76 37.13 74.54 34.15 72.75 31.89C70.12 28.56 69.44 26.69 69.16 22.14C68.87 17.35 69.21 15.97 71.39 13C72.8 11.07 74.42 8.49 74.98 7.25C75.54 6.01 76.44 3.88 76.98 2.5C77.52 1.13 78.76 -0.01 79.73 -0.02ZM103.73 -0.02C104.7 -0.03 106.07 0.54 106.77 1.23C107.46 1.93 108.04 3.85 108.05 5.5C108.07 7.31 106.67 10.59 104.54 13.75C102.59 16.64 101 20.13 101 21.5C101 22.88 102.57 26.25 104.5 29C107.08 32.69 108 35.05 108 38C108 40.2 107.39 43.46 106.65 45.25C105.92 47.04 104.54 49.17 103.59 50C102.64 50.82 101.45 53.19 100.93 55.25C100.32 57.7 99.3 59.17 98 59.5C96.9 59.77 95.3 59.44 94.46 58.75C93.61 58.06 92.91 56.15 92.92 54.5C92.92 52.73 94.37 49.35 96.46 46.25C98.41 43.36 100 39.88 100 38.5C100 37.13 98.54 34.15 96.75 31.89C94.12 28.56 93.44 26.69 93.16 22.14C92.87 17.35 93.21 15.97 95.39 13C96.8 11.07 98.42 8.49 98.98 7.25C99.54 6.01 100.44 3.88 100.98 2.5C101.52 1.13 102.76 -0.01 103.73 -0.02ZM76.25 68.04C136.88 68 142.28 68.14 145.6 69.75C147.58 70.71 149.9 72.63 150.76 74C151.61 75.38 152.31 78.07 152.31 80C152.31 81.92 151.46 84.8 150.41 86.38C149.36 87.97 147.26 89.88 145.75 90.63C143.51 91.75 130.72 92 76.25 92C13.68 91.99 9.31 91.88 6.5 90.19C4.85 89.19 2.75 86.83 1.83 84.94C0.81 82.83 0.39 80.34 0.74 78.5C1.05 76.85 2.03 74.41 2.9 73.08C3.78 71.75 5.85 70.08 7.5 69.37C9.85 68.36 24.75 68.07 76.25 68.04ZM8.8 80.08C8.91 81.69 9.67 83.22 10.5 83.5C11.32 83.77 14.92 84 18.5 84C22.07 84 25.67 83.77 26.5 83.5C27.39 83.2 28 81.78 28 80C28 78.22 27.39 76.8 26.5 76.5C25.67 76.22 21.96 76.04 18.25 76.08C14.54 76.12 10.85 76.38 10.05 76.66C9.16 76.97 8.68 78.29 8.8 80.08ZM36.8 80.08C36.91 81.69 37.67 83.22 38.5 83.5C39.32 83.77 41.13 84 42.5 84C43.88 84 45.67 83.77 46.5 83.5C47.39 83.2 48 81.78 48 80C48 78.22 47.39 76.8 46.5 76.5C45.67 76.22 43.76 76.04 42.25 76.08C40.74 76.12 38.85 76.38 38.05 76.66C37.16 76.97 36.68 78.29 36.8 80.08ZM13.15 100L140 100L137.86 104.75C136.68 107.36 134.43 111.41 132.86 113.75C131.29 116.09 130.34 118 130.75 117.99C131.16 117.99 134.09 115.74 137.25 112.99C140.41 110.25 143.45 108 144 108C144.55 108 145.67 108.22 146.5 108.5C147.32 108.77 148 110.13 148 111.5C148 113.2 146.49 115.39 143.25 118.36C140.64 120.76 126.13 133.66 111 147.02C95.88 160.37 83.37 171.57 83.21 171.9C83.06 172.23 97.9 185.77 116.2 202C134.5 218.22 150.26 232.29 151.23 233.25C152.44 234.44 152.76 235.65 152.25 237.04C151.84 238.17 150.71 239.29 149.75 239.54C148.79 239.8 146.99 239.35 145.75 238.56C144.51 237.77 139.22 233.29 124.5 220.06L28.5 220.02L17.25 230.01C11.06 235.51 5.32 240 4.5 240C3.67 240 2.32 239.32 1.5 238.5C0.55 237.55 0.27 236.32 0.75 235.14C1.16 234.11 16.92 219.6 35.77 202.89C54.62 186.17 70 172.27 69.95 172C69.91 171.72 55.3 158.67 37.48 143C9.94 118.77 5.08 114.09 5.04 111.75C5.02 110.16 5.64 108.79 6.5 108.5C7.32 108.22 8.45 108 9 108C9.55 108 12.59 110.25 15.75 113C18.91 115.76 21.72 117.8 22 117.54C22.27 117.28 21.08 114.91 19.34 112.28C17.6 109.65 15.5 105.81 14.67 103.75L13.15 100ZM59.5 151.87L76.5 166.89C80.38 163.35 87.8 156.79 95.5 150.02C103.2 143.25 109.95 137.33 110.5 136.87C111.05 136.41 111.27 135.8 111 135.52C110.72 135.23 107.57 136.29 104 137.87C100.42 139.44 95.02 141.35 92 142.09C88.97 142.84 82 143.46 76.5 143.46C71 143.46 64.02 142.84 61 142.09C57.97 141.35 52.57 139.43 49 137.84C45.42 136.25 42.33 134.96 42.13 134.98C41.93 134.99 41.93 135.42 42.13 135.93C42.33 136.44 50.15 143.61 59.5 151.87ZM38.14 211.5C67.09 211.92 84.34 211.92 95.14 211.77L114.78 211.5C85.5 185.54 76.66 178.03 76.25 178.07C75.84 178.11 67.09 185.65 56.82 194.82L38.14 211.5Z" />
</svg>