<svg version="1.2" baseProfile="tiny-ps" xmlns="http://www.w3.org/2000/svg" viewBox="0 0 245 588" width="245" height="588">
	<title>homem-svg</title>
	<style>
		tspan { white-space:pre }
		.shp0 { fill: #000000 } 
		.shp1 { fill: #313232 } 
	</style>
	<g id="Layer">
		<path id="Layer" class="shp0" d="M522.5 0.5C551.2 1.6 572.9 24.4 573 53.6C573 72.3 562.9 90 546.8 99.4L542 102.2L542 112.1L542 122L560.4 122C570.5 122 581.2 122.5 584.1 123C595.8 125.2 606 132.9 611.8 143.8C615.4 150.6 658 286.7 658 291.3C658 302.7 649.1 312.7 637.3 314.6C628.8 315.9 617.2 310.2 613.3 302.7C612.2 300.5 584 212 584 210.6C584 210.5 582.2 210.6 580 210.8C577.8 211 576 211.5 576 211.8C576 212.3 594.8 276.5 626.4 384L633.6 408.5L605.3 408.8L577 409L577 490.8C577 567.9 576.9 572.7 575.1 576.5C572.9 581.5 568.2 585.6 563.1 587.1C560.8 587.8 555 588.1 548.9 587.9C537 587.4 532.8 585.6 528.8 579.2L526.5 575.5L526 492.5L525.5 409.5L520.3 409.5L515 409.5L514.8 491.6L514.5 573.7L511.5 578.5C506.9 586 502.2 588 489.3 588C474.8 588 468.9 585.3 464.9 576.5C463.1 572.7 463 568.1 463 490.8L463 409L434.7 408.8L406.4 408.5L435.3 310.2C451.2 256.1 464.1 211.7 463.9 211.5C463.7 211.4 461.5 211 459 210.9L454.6 210.5L440.3 256C430.3 287.9 425.2 302.6 423.3 305.4C421.7 307.7 418.4 310.5 415.7 311.9C400.5 319.7 382 308.4 382 291.3C382 289.5 390.1 262 400.1 230.3C410.1 198.5 419.8 167.3 421.7 161C423.7 154.7 426.4 147.3 427.7 144.6C431.1 137.8 438.9 129.9 445.3 126.7C452.6 122.9 459.6 122 480.3 122L498 122L498 112.1L498 102.2L493.3 99.4C477.1 90 467 72.3 467 53.6C467 35.8 474.4 21.1 488.6 10.4C493.9 6.5 504.5 1.8 511 0.6C512.4 0.3 517.6 0.3 522.5 0.5Z" />
		<path id="Layer" class="shp1" d="M133.3 2.5C152.7 6.6 169.4 22.8 174.1 42C175.8 49.3 175.6 62.2 173.7 68.8C169.8 81.7 160.3 94.1 149.2 100.5L144 103.5L144 112.2L144 120.8L176.8 121.2C205.4 121.6 210.1 121.9 214.5 123.5C231 129.5 241.7 142.9 244 160.1C245.3 170.6 245.3 311.5 243.9 317.9C239.5 338.6 211.5 342.5 201.3 323.9C199.6 320.7 199.5 316.6 199 266.5L198.5 212.5L192.8 212.2L187 211.9L186.8 392.7L186.5 573.5L184.2 577.7C183 580.1 180.1 583.2 177.8 584.7C173.9 587.4 172.9 587.5 160.1 587.8C152 588 145 587.7 142.8 587.1C137.8 585.6 133.1 581.4 130.9 576.5C129.1 572.7 129 567 129 460.2L129 348L122.5 348L116 348L115.8 460.7L115.5 573.5L113.2 577.7C112 580.1 109.1 583.2 106.8 584.7C102.9 587.4 101.9 587.5 89.1 587.8C81 588 74 587.7 71.8 587.1C66.8 585.6 62.1 581.4 59.9 576.5C58.1 572.7 58 565 58 392.2L58 211.9L52.3 212.2L46.5 212.5L46 266C45.4 326.2 45.8 323.6 37.7 330.5C26 340.6 8.3 336.3 2.1 322L-0.1 317L0.2 235.7L0.5 154.5L4.2 146.7C8.4 137.9 14.8 131.1 22.8 126.7C31.8 121.8 38.5 121 71.3 121L101 121L101 112.5L101 104L94.5 100C78.9 90.1 69.1 72.7 69 54.8C69 30 86.8 7.8 111 2.6C119.5 0.7 125 0.7 133.3 2.5Z" />
		<path id="Layer" class="shp0" d="M1185 146.3C1194.3 146.6 1202.2 149.5 1209 154.9C1211.7 157.1 1213.3 157.6 1215.8 157.2C1220.9 156.5 1223.5 157.7 1229.9 163.6C1235.6 168.8 1243.2 179.4 1247.9 188.7L1250 193L1245.2 193C1242.5 193 1239.5 193.7 1238.2 194.6C1236.9 195.5 1235.7 196 1235.4 195.7C1235.2 195.5 1234 192 1232.9 188.1C1230.5 179 1226.7 171.5 1222.7 167.2C1218.2 162.5 1216.9 163.2 1219.6 168.7C1228.3 186.3 1222.1 208.8 1205.7 219L1200.1 222.5L1200 230.2L1200 238L1214.8 238C1230.8 238 1234.2 238.9 1240.8 244.5C1247.6 250.2 1246.6 247.2 1270.4 329.4C1275.7 347.4 1280 363.6 1280 365.4C1280 370 1276.1 377.1 1272.1 379.7C1268.2 382.4 1261.4 382.8 1257.2 380.6C1250.9 377.3 1250.1 375.5 1239.6 339.3L1229.5 304.5L1226.3 304.2C1224.1 304 1223 304.3 1223 305.2C1223 305.9 1232 339.3 1242.9 379.5C1253.9 419.6 1262.8 452.6 1262.7 452.7C1262.5 452.8 1253.7 453 1243 453.2L1223.5 453.5L1223 516.5C1222.5 575.1 1222.4 579.7 1220.7 582.2C1218 586.2 1213.2 588 1205.3 588C1197.1 588 1192.4 585.9 1189.5 581C1187.6 577.6 1187.5 575.8 1187.2 515.5L1187 453.5L1183.5 453.2L1180.1 452.9L1179.8 515.7C1179.5 585.6 1179.9 581.6 1172.7 586.1C1170 587.8 1168.1 588 1160.8 587.8C1153.2 587.5 1151.8 587.2 1149.5 585C1148 583.6 1146.3 581.6 1145.7 580.5C1144.8 579.1 1144.4 560.7 1144 516L1143.5 453.5L1123.9 453L1104.4 452.5L1124.5 378.8C1135.6 338.2 1144.5 304.8 1144.2 304.5C1143.1 303.5 1137.9 304 1137.5 305.2C1137.3 305.9 1133 320.7 1128.1 338C1123.1 355.3 1118.1 371.3 1117 373.5C1114.2 379 1110.7 381.3 1104.4 381.8C1098.2 382.3 1093.3 379.9 1090.1 374.7C1085.7 367.6 1085.7 367.5 1102.4 310.2C1111.5 279 1119 254.9 1120.6 251.9C1123.7 246.3 1129.3 241.4 1134.8 239.4C1137.2 238.6 1143.6 238.1 1152.8 238L1167 238L1167 230.2L1167 222.5L1163.5 220.6C1158.2 217.7 1150.2 208.7 1147.2 202.3C1144.8 197.1 1144.5 195.4 1144.5 185.5C1144.5 175.4 1144.7 174.1 1147.3 169.2C1150.6 162.9 1148.9 162.1 1144 167.7C1140.3 171.9 1136.9 179.1 1134.5 187.6C1131.9 197 1132.3 196.4 1129.5 194.6C1128.2 193.7 1125 193 1122.5 193C1120 193 1118 192.8 1118 192.5C1118 191.1 1123.7 180.8 1128.1 174.4C1136.6 161.8 1145.4 155.6 1152.3 157.4C1153.8 157.8 1155.6 157.1 1158 155.1C1162.2 151.8 1167.1 149.1 1172.5 147.3C1174.9 146.5 1179.8 146.1 1185 146.3Z" />
		<path id="Layer" class="shp0" d="M892.1 147.1C912 146.9 928 160 932.1 179.8C933.7 187.4 932.5 196.1 928.6 204.5C925.8 210.7 917.1 219.9 912.1 221.9C909 223.2 909 223.3 909 230.5L909 237.8L926.8 238.2C942.9 238.5 944.9 238.7 948.7 240.8C954.1 243.6 959.4 248.9 962 253.9C963.1 256.1 971.2 280.9 980.1 309.2C991.4 345.1 996.2 361.9 996.2 365.2C996.2 379.9 978.7 387.3 967.8 377.2C964 373.6 963.5 372.4 953.1 339.3C947.2 320.5 942.1 304.7 941.7 304.4C941.3 304 941 365.3 941 440.7L941 577.7L938.7 581.1C935.1 586.5 931 588 919.5 588C908 588 903.9 586.5 900.3 581.1L898 577.7L898 492.9L898 408L893 408L888 408L888 491.8L888 575.6L885.8 580C882.4 586.5 878.8 588 866.2 588C857.5 588 855.2 587.7 852 585.9C844.4 581.6 845 594.1 845 441.1C845 365.7 844.6 304 844.2 304C843.8 304 839 318.3 833.6 335.7C828.2 353.2 823 369.3 822 371.6C817.4 382.2 804 385.3 795.3 377.7C791.3 374.2 789 369.6 789 365.2C789 362 821 258.9 823.4 254.1C826.1 248.9 831.1 244 836.4 241.2C841.3 238.6 842.3 238.5 858.7 238.2L875.8 237.8L876.2 230.9L876.5 223.9L871.8 220.9C865.4 216.7 859.3 209.9 856.2 203.2C853.8 198.2 853.5 196.3 853.5 187C853.5 177.2 853.7 176 856.7 170C861.8 159.7 870.9 151.7 881.3 148.5C883.6 147.7 888.5 147.1 892.1 147.1Z" />
	</g>
</svg>