<svg version="1.2" baseProfile="tiny-ps" xmlns="http://www.w3.org/2000/svg" viewBox="0 0 276 588" width="276" height="588">
	<title>mulher-svg</title>
	<style>
		tspan { white-space:pre }
		.shp0 { fill: #313232 } 
		.shp1 { fill: #000000 } 
	</style>
	<g id="Layer">
		<path id="Layer" class="shp0" d="M140.5 0.5C169.2 1.6 190.9 24.4 191 53.6C191 72.3 180.9 90 164.8 99.4L160 102.2L160 112.1L160 122L178.4 122C188.5 122 199.2 122.5 202.1 123C213.8 125.2 224 132.9 229.8 143.8C233.4 150.6 276 286.69 276 291.29C276 302.69 267.1 312.69 255.3 314.59C246.8 315.89 235.2 310.19 231.3 302.69C230.2 300.49 202 211.99 202 210.59C202 210.49 200.2 210.59 198 210.79C195.8 210.99 194 211.49 194 211.79C194 212.29 212.8 276.49 244.4 383.99L251.6 408.49L223.3 408.79L195 408.99L195 490.78C195 567.88 194.9 572.68 193.1 576.48C190.9 581.48 186.2 585.58 181.1 587.08C178.8 587.78 173 588.08 166.9 587.88C155 587.38 150.8 585.58 146.8 579.18L144.5 575.48L144 492.48L143.5 409.49L138.3 409.49L133 409.49L132.8 491.58L132.5 573.68L129.5 578.48C124.9 585.98 120.2 587.98 107.3 587.98C92.8 587.98 86.9 585.28 82.9 576.48C81.1 572.68 81 568.08 81 490.78L81 408.99L52.7 408.79L24.4 408.49L53.3 310.19C69.2 256.09 82.1 211.69 81.9 211.49C81.7 211.39 79.5 210.99 77 210.89L72.6 210.49L58.3 255.99C48.3 287.89 43.2 302.59 41.3 305.39C39.7 307.69 36.4 310.49 33.7 311.89C18.5 319.69 0 308.39 0 291.29C0 289.49 8.1 261.99 18.1 230.29C28.1 198.49 37.8 167.29 39.7 160.99C41.7 154.7 44.4 147.3 45.7 144.6C49.1 137.8 56.9 129.9 63.3 126.7C70.6 122.9 77.6 122 98.3 122L116 122L116 112.1L116 102.2L111.3 99.4C95.1 90 85 72.3 85 53.6C85 35.8 92.4 21.1 106.6 10.4C111.9 6.5 122.5 1.8 129 0.6C130.4 0.3 135.6 0.3 140.5 0.5Z" />
		<path id="Layer" class="shp1" d="M-248.7 2.5C-229.3 6.6 -212.6 22.8 -207.9 42C-206.2 49.3 -206.4 62.2 -208.3 68.8C-212.2 81.7 -221.7 94.1 -232.8 100.5L-238 103.5L-238 112.2L-238 120.8L-205.2 121.2C-176.6 121.6 -171.9 121.9 -167.5 123.5C-151 129.5 -140.3 142.9 -138 160.09C-136.7 170.59 -136.7 311.49 -138.1 317.89C-142.5 338.59 -170.5 342.49 -180.7 323.89C-182.4 320.69 -182.5 316.59 -183 266.49L-183.5 212.49L-189.2 212.19L-195 211.89L-195.2 392.69L-195.5 573.48L-197.8 577.68C-199 580.08 -201.9 583.18 -204.2 584.68C-208.1 587.38 -209.1 587.48 -221.9 587.78C-230 587.98 -237 587.68 -239.2 587.08C-244.2 585.58 -248.9 581.38 -251.1 576.48C-252.9 572.68 -253 566.98 -253 460.18L-253 347.99L-259.5 347.99L-266 347.99L-266.2 460.68L-266.5 573.48L-268.8 577.68C-270 580.08 -272.9 583.18 -275.2 584.68C-279.1 587.38 -280.1 587.48 -292.9 587.78C-301 587.98 -308 587.68 -310.2 587.08C-315.2 585.58 -319.9 581.38 -322.1 576.48C-323.9 572.68 -324 564.98 -324 392.19L-324 211.89L-329.7 212.19L-335.5 212.49L-336 265.99C-336.6 326.19 -336.2 323.59 -344.3 330.49C-356 340.59 -373.7 336.29 -379.9 321.99L-382.1 316.99L-381.8 235.69L-381.5 154.49L-377.8 146.69C-373.6 137.89 -367.2 131.09 -359.2 126.7C-350.2 121.8 -343.5 121 -310.7 121L-281 121L-281 112.5L-281 104L-287.5 100C-303.1 90.1 -312.9 72.7 -313 54.8C-313 30 -295.2 7.8 -271 2.6C-262.5 0.7 -257 0.7 -248.7 2.5Z" />
		<path id="Layer" class="shp1" d="M803 146.3C812.3 146.6 820.2 149.5 827 154.9C829.7 157.1 831.3 157.6 833.8 157.2C838.9 156.5 841.5 157.7 847.9 163.6C853.6 168.8 861.2 179.4 865.9 188.7L868 193L863.2 193C860.5 193 857.5 193.7 856.2 194.6C854.9 195.5 853.7 196 853.4 195.7C853.2 195.5 852 192 850.9 188.1C848.5 179 844.7 171.5 840.7 167.2C836.2 162.5 834.9 163.2 837.6 168.7C846.3 186.3 840.1 208.79 823.7 218.99L818.1 222.49L818 230.19L818 237.99L832.8 237.99C848.8 237.99 852.2 238.89 858.8 244.49C865.6 250.19 864.6 247.19 888.4 329.39C893.7 347.39 898 363.59 898 365.39C898 369.99 894.1 377.09 890.1 379.69C886.2 382.39 879.4 382.79 875.2 380.59C868.9 377.29 868.1 375.49 857.6 339.29L847.5 304.49L844.3 304.19C842.1 303.99 841 304.29 841 305.19C841 305.89 850 339.29 860.9 379.49C871.9 419.59 880.8 452.59 880.7 452.69C880.5 452.79 871.7 452.99 861 453.19L841.5 453.49L841 516.49C840.5 575.08 840.4 579.68 838.7 582.18C836 586.18 831.2 587.98 823.3 587.98C815.1 587.98 810.4 585.88 807.5 580.98C805.6 577.58 805.5 575.78 805.2 515.49L805 453.49L801.5 453.19L798.1 452.89L797.8 515.69C797.5 585.58 797.9 581.58 790.7 586.08C788 587.78 786.1 587.98 778.8 587.78C771.2 587.48 769.8 587.18 767.5 584.98C766 583.58 764.3 581.58 763.7 580.48C762.8 579.08 762.4 560.68 762 515.99L761.5 453.49L741.9 452.99L722.4 452.49L742.5 378.79C753.6 338.19 762.5 304.79 762.2 304.49C761.1 303.49 755.9 303.99 755.5 305.19C755.3 305.89 751 320.69 746.1 337.99C741.1 355.29 736.1 371.29 735 373.49C732.2 378.99 728.7 381.29 722.4 381.79C716.2 382.29 711.3 379.89 708.1 374.69C703.7 367.59 703.7 367.49 720.4 310.19C729.5 278.99 737 254.89 738.6 251.89C741.7 246.29 747.3 241.39 752.8 239.39C755.2 238.59 761.6 238.09 770.8 237.99L785 237.99L785 230.19L785 222.49L781.5 220.59C776.2 217.69 768.2 208.69 765.2 202.29C762.8 197.1 762.5 195.4 762.5 185.5C762.5 175.4 762.7 174.1 765.3 169.2C768.6 162.9 766.9 162.1 762 167.7C758.3 171.9 754.9 179.1 752.5 187.6C749.9 197 750.3 196.4 747.5 194.6C746.2 193.7 743 193 740.5 193C738 193 736 192.8 736 192.5C736 191.1 741.7 180.8 746.1 174.4C754.6 161.8 763.4 155.6 770.3 157.4C771.8 157.8 773.6 157.1 776 155.1C780.2 151.8 785.1 149.1 790.5 147.3C792.9 146.5 797.8 146.1 803 146.3Z" />
		<path id="Layer" class="shp1" d="M510.1 147.1C530 146.9 546 160 550.1 179.8C551.7 187.39 550.5 196.09 546.6 204.49C543.8 210.69 535.1 219.89 530.1 221.89C527 223.19 527 223.29 527 230.49L527 237.79L544.8 238.19C560.9 238.49 562.9 238.69 566.7 240.79C572.1 243.59 577.4 248.89 580 253.89C581.1 256.09 589.2 280.89 598.1 309.19C609.4 345.09 614.2 361.89 614.2 365.19C614.2 379.89 596.7 387.29 585.8 377.19C582 373.59 581.5 372.39 571.1 339.29C565.2 320.49 560.1 304.69 559.7 304.39C559.3 303.99 559 365.29 559 440.69L559 577.68L556.7 581.08C553.1 586.48 549 587.98 537.5 587.98C526 587.98 521.9 586.48 518.3 581.08L516 577.68L516 492.89L516 407.99L511 407.99L506 407.99L506 491.79L506 575.58L503.8 579.98C500.4 586.48 496.8 587.98 484.2 587.98C475.5 587.98 473.2 587.68 470 585.88C462.4 581.58 463 594.08 463 441.09C463 365.69 462.6 303.99 462.2 303.99C461.8 303.99 457 318.29 451.6 335.69C446.2 353.19 441 369.29 440 371.59C435.4 382.19 422 385.29 413.3 377.69C409.3 374.19 407 369.59 407 365.19C407 361.99 439 258.89 441.4 254.09C444.1 248.89 449.1 243.99 454.4 241.19C459.3 238.59 460.3 238.49 476.7 238.19L493.8 237.79L494.2 230.89L494.5 223.89L489.8 220.89C483.4 216.69 477.3 209.89 474.2 203.19C471.8 198.19 471.5 196.29 471.5 186.99C471.5 177.2 471.7 176 474.7 170C479.8 159.7 488.9 151.7 499.3 148.5C501.6 147.7 506.5 147.1 510.1 147.1Z" />
	</g>
</svg>